<svg width="249" height="83" viewBox="0 0 249 83" fill="none" xmlns="http://www.w3.org/2000/svg">
<path d="M228.707 43.1511L241.802 67.7482C242.544 69.1324 243.69 69.7112 244.906 69.7112C246.727 69.7112 248.62 68.2546 248.62 65.7805L248.687 16.5909C248.687 14.1168 246.866 12.5879 245.041 12.5879C243.824 12.5879 242.611 13.2438 241.869 14.628L228.707 39.1528C228.371 39.7364 228.232 40.4598 228.232 41.1158C228.232 41.844 228.367 42.5 228.707 43.1511Z" fill="#2FC18C"/>
<path d="M215.142 51.5189L228.304 76.0437C228.644 76.6997 228.845 77.4279 228.845 78.079C228.845 80.1915 227.092 82.0097 225.132 82.0097C224.524 82.0097 223.915 81.8651 223.311 81.4985L183.825 56.829C182.541 56.0284 182.004 54.7165 182.004 53.4819C182.004 51.4466 183.423 49.4064 185.718 49.4064L211.975 49.5511C213.326 49.5511 214.538 50.2794 215.147 51.5141" fill="#2FC18C"/>
<path d="M211.903 32.4538H185.646C183.351 32.4538 182 30.4908 182 28.5231C182 27.2112 182.541 25.9042 183.821 25.1036L223.374 0.58358C223.982 0.221857 224.658 0 225.266 0C227.226 0 228.913 1.81826 228.913 4.00307C228.913 4.65899 228.711 5.31492 228.371 5.96602L215.075 30.4908C214.4 31.7303 213.254 32.4538 211.903 32.4538" fill="#2FC18C"/>
<path d="M137.615 36.4659C141.592 36.4659 144.026 38.8485 144.67 43.2663H130.47C131.28 38.8919 133.736 36.4659 137.615 36.4659ZM153.569 47.0909C153.569 35.2457 147.614 28.9758 137.615 28.9758C128.184 28.9758 121.165 35.781 121.165 46.8594C121.165 58.7818 129.106 64.5163 139.315 64.5163C143.78 64.5163 148.675 63.5228 153.564 61.3814L152.146 52.9749C148.603 54.8848 144.42 55.9555 140.733 55.9555C134.636 55.9555 131.106 53.4814 130.332 48.8465H153.564V47.0861L153.569 47.0909Z" fill="white"/>
<path d="M99.8963 55.8784C94.9348 55.8784 92.0268 52.2081 92.0268 46.6279C92.0268 41.0477 94.9348 37.2279 99.8963 37.2279C104.576 37.2279 107.623 41.0477 107.623 46.6279C107.623 52.2081 104.571 55.8784 99.8963 55.8784ZM102.379 28.9758C98.4915 28.9758 94.7066 30.8857 92.17 33.7313V17.7383H92.0984L82.9539 21.5581V63.7494H92.17V59.6113C94.805 62.6643 98.6257 64.5163 102.451 64.5163C111.528 64.5163 117.411 56.7947 117.411 46.6327C117.411 36.4707 111.313 28.9758 102.379 28.9758" fill="white"/>
<path d="M62.8172 50.9107L69.1969 29.7379H79.5493L63.7388 73H53.4579L57.8557 62.1483L46.7203 29.7379H57.0728L62.8172 50.9107Z" fill="white"/>
<path d="M32.9677 34.937C34.8109 31.7249 37.7905 29.6655 42.0451 29.6655L45.3781 39.2198L45.3065 39.297C44.4565 38.8388 43.0383 38.5301 41.3382 38.5301C35.8801 38.5301 32.9721 42.5043 32.9721 48.3111V63.7495H23.756V29.7379H32.9721V34.937H32.9677Z" fill="white"/>
<path d="M9.2161 17.7383V29.7378H18.4322V38.1443H9.2161V50.983C9.2161 54.6533 11.4127 55.9507 13.8241 55.9507C15.4571 55.9507 17.0856 55.4154 18.3606 54.5762H18.4322V62.9054C16.6606 63.8218 13.3275 64.5115 10.9877 64.5115C4.25014 64.5115 0 59.7753 0 52.5119V21.5581L9.14452 17.7383H9.2161V17.7383Z" fill="white"/>
</svg>
